<score-partwise>
	<part-list>
		<score-part id="P1">
			<part-name>Horn 2</part-name>
			<part-abbreviation>H</part-abbreviation>
			<score-instrument id="P1-I1">
				<instrument-name>Instrument 1</instrument-name>
			</score-instrument>
			<midi-instrument id="P1-I1">
				<midi-channel>1</midi-channel>
				<midi-program>1</midi-program>
			</midi-instrument>
		</score-part>
		<score-part id="P2">
			<part-name>Soprano</part-name>
			<part-abbreviation>S</part-abbreviation>
			<score-instrument id="P2-I2">
				<instrument-name>Instrument 2</instrument-name>
			</score-instrument>
			<midi-instrument id="P2-I2">
				<midi-channel>2</midi-channel>
				<midi-program>1</midi-program>
			</midi-instrument>
		</score-part>
		<score-part id="P3">
			<part-name>Alto</part-name>
			<part-abbreviation>A</part-abbreviation>
			<score-instrument id="P3-I3">
				<instrument-name>Instrument 3</instrument-name>
			</score-instrument>
			<midi-instrument id="P3-I3">
				<midi-channel>3</midi-channel>
				<midi-program>1</midi-program>
			</midi-instrument>
		</score-part>
		<score-part id="P4">
			<part-name>Tenor</part-name>
			<part-abbreviation>T</part-abbreviation>
			<score-instrument id="P4-I4">
				<instrument-name>Instrument 4</instrument-name>
			</score-instrument>
			<midi-instrument id="P4-I4">
				<midi-channel>4</midi-channel>
				<midi-program>1</midi-program>
			</midi-instrument>
		</score-part>
		<score-part id="P5">
			<part-name>Bass</part-name>
			<part-abbreviation>B</part-abbreviation>
			<score-instrument id="P5-I5">
				<instrument-name>Instrument 5</instrument-name>
			</score-instrument>
			<midi-instrument id="P5-I5">
				<midi-channel>5</midi-channel>
				<midi-program>1</midi-program>
			</midi-instrument>
		</score-part>
	</part-list>
	<part id ="P1">
		<measure number="0">
			<attributes>
				<divisions>4</divisions>
				<key>
					<fifths>-1</fifths>
					<mode>major</mode>
				</key>
				<time symbol="common">
					<beats>4</beats>
					<beat-type>4</beat-type>
				</time>
			</attributes>
			<sound tempo="76"/>
		</measure>
		<!--=======================================================-->
		<measure number="1">
			<note>
				<pitch>
					<step>F</step>
					<alter>-1</alter>
					<octave>4</octave>
				</pitch>
				<voice>1</voice>
				<type>quarter</type>
			</note>

			<note>
				<pitch>
					<step>G</step>
					<octave>4</octave>
				</pitch>
				<voice>1</voice>
				<type>eighth</type>
			</note>

			<note>
				<pitch>
					<step>C</step>
					<octave>4</octave>
				</pitch>
				<voice>1</voice>
				<type>eighth</type>
			</note>

			<note>
				<pitch>
					<step>F</step>
					<octave>4</octave>
				</pitch>
				<voice>1</voice>
				<type>eighth</type>
			</note>

			<note>
				<pitch>
					<step>F</step>
					<octave>3</octave>
				</pitch>
				<voice>1</voice>
				<type>eighth</type>
			</note>

			<note>
				<pitch>
					<step>A</step>
					<octave>3</octave>
				</pitch>
				<voice>1</voice>
				<type>eighth</type>
			</note>

			<note>
				<pitch>
					<step>F</step>
					<octave>3</octave>
				</pitch>
				<voice>1</voice>
				<type>eighth</type>
			</note>

		</measure>
		<!--=======================================================-->
		<measure number="2">
			<note>
				<pitch>
					<step>A</step>
					<octave>3</octave>
				</pitch>
				<voice>1</voice>
				<type>eighth</type>
			</note>

			<note>
				<pitch>
					<step>C</step>
					<octave>4</octave>
				</pitch>
				<voice>1</voice>
				<type>eighth</type>
			</note>

			<note>
				<pitch>
					<step>F</step>
					<octave>4</octave>
				</pitch>
				<voice>1</voice>
				<type>16th</type>
			</note>

			<note>
				<pitch>
					<step>B</step>
					<alter>-1</alter>
					<octave>4</octave>
				</pitch>
				<voice>1</voice>
				<type>16th</type>
			</note>

			<note>
				<pitch>
					<step>A</step>
					<octave>4</octave>
				</pitch>
				<voice>1</voice>
				<type>16th</type>
			</note>

			<note>
				<pitch>
					<step>G</step>
					<octave>4</octave>
				</pitch>
				<voice>1</voice>
				<type>16th</type>
			</note>

			<note>
				<pitch>
					<step>F</step>
					<octave>4</octave>
				</pitch>
				<voice>1</voice>
				<type>eighth</type>
			</note>

			<note>
				<pitch>
					<step>G</step>
					<octave>4</octave>
				</pitch>
				<voice>1</voice>
				<type>eighth</type>
			</note>

			<note>
				<pitch>
					<step>A</step>
					<octave>4</octave>
				</pitch>
				<voice>1</voice>
				<type>quarter</type>
			</note>

		</measure>
		<!--=======================================================-->
		<measure number="3">
			<note>
				<pitch>
					<step>A</step>
					<octave>4</octave>
				</pitch>
				<voice>1</voice>
				<type>quarter</type>
			</note>

			<note>
				<pitch>
					<step>F</step>
					<octave>4</octave>
				</pitch>
				<voice>1</voice>
				<type>eighth</type>
			</note>

			<note>
				<pitch>
					<step>G</step>
					<octave>4</octave>
				</pitch>
				<voice>1</voice>
				<type>16th</type>
			</note>

			<note>
				<pitch>
					<step>A</step>
					<octave>4</octave>
				</pitch>
				<voice>1</voice>
				<type>16th</type>
			</note>

			<note>
				<pitch>
					<step>B</step>
					<alter>-1</alter>
					<octave>4</octave>
				</pitch>
				<voice>1</voice>
				<type>eighth</type>
			</note>

			<note>
				<pitch>
					<step>C</step>
					<octave>5</octave>
				</pitch>
				<voice>1</voice>
				<type>16th</type>
			</note>

			<note>
				<pitch>
					<step>B</step>
					<alter>-1</alter>
					<octave>4</octave>
				</pitch>
				<voice>1</voice>
				<type>16th</type>
			</note>

			<note>
				<pitch>
					<step>A</step>
					<octave>4</octave>
				</pitch>
				<voice>1</voice>
				<type>eighth</type>
			</note>

			<note>
				<pitch>
					<step>G</step>
					<octave>4</octave>
				</pitch>
				<voice>1</voice>
				<type>eighth</type>
			</note>

		</measure>
		<!--=======================================================-->
		<measure number="4">
			<note>
				<pitch>
					<step>G</step>
					<octave>4</octave>
				</pitch>
				<voice>1</voice>
				<type>eighth</type>
			</note>

			<note>
				<pitch>
					<step>C</step>
					<octave>5</octave>
				</pitch>
				<voice>1</voice>
				<type>eighth</type>
			</note>

			<note>
				<pitch>
					<step>C</step>
					<octave>5</octave>
				</pitch>
				<voice>1</voice>
				<type>eighth</type>
			</note>

			<note>
				<pitch>
					<step>B</step>
					<octave>4</octave>
				</pitch>
				<voice>1</voice>
				<type>16th</type>
			</note>

			<note>
				<pitch>
					<step>A</step>
					<octave>4</octave>
				</pitch>
				<voice>1</voice>
				<type>16th</type>
			</note>

			<note>
				<pitch>
					<step>B</step>
					<octave>4</octave>
				</pitch>
				<voice>1</voice>
				<type>quarter</type>
			</note>

			<note>
				<pitch>
					<step>C</step>
					<octave>5</octave>
				</pitch>
				<voice>1</voice>
				<type>quarter</type>
			</note>

		</measure>
		<!--=======================================================-->
		<measure number="5">
			<note>
				<pitch>
					<step>F</step>
					<octave>4</octave>
				</pitch>
				<voice>1</voice>
				<type>
</type>
			</note>

			<note>
				<pitch>
					<step>F</step>
					<octave>4</octave>
				</pitch>
				<voice>1</voice>
				<type>
</type>
			</note>

			<note>
				<pitch>
					<step>B</step>
					<alter>-1</alter>
					<octave>4</octave>
				</pitch>
				<voice>1</voice>
				<type>eighth</type>
			</note>

			<note>
				<pitch>
					<step>A</step>
					<octave>4</octave>
				</pitch>
				<voice>1</voice>
				<type>eighth</type>
			</note>

			<note>
				<pitch>
					<step>G</step>
					<octave>4</octave>
				</pitch>
				<voice>1</voice>
				<type>eighth</type>
			</note>

			<note>
				<pitch>
					<step>F</step>
					<octave>4</octave>
				</pitch>
				<voice>1</voice>
				<type>eighth</type>
			</note>

			<note>
				<pitch>
					<step>C</step>
					<octave>4</octave>
				</pitch>
				<voice>1</voice>
				<type>eighth</type>
			</note>

			<note>
				<pitch>
					<step>F</step>
					<octave>4</octave>
				</pitch>
				<voice>1</voice>
				<type>eighth</type>
			</note>

			<note>
				<pitch>
					<step>C</step>
					<octave>4</octave>
				</pitch>
				<voice>1</voice>
				<type>eighth</type>
			</note>

			<note>
				<pitch>
					<step>C</step>
					<octave>4</octave>
				</pitch>
				<voice>1</voice>
				<type>eighth</type>
			</note>

		</measure>
		<!--=======================================================-->
		<measure number="6">
			<note>
				<pitch>
					<step>A</step>
					<octave>3</octave>
				</pitch>
				<voice>1</voice>
				<type>16th</type>
			</note>

			<note>
				<pitch>
					<step>F</step>
					<octave>3</octave>
				</pitch>
				<voice>1</voice>
				<type>16th</type>
			</note>

			<note>
				<pitch>
					<step>C</step>
					<octave>4</octave>
				</pitch>
				<voice>1</voice>
				<type>eighth</type>
			</note>

			<note>
				<pitch>
					<step>C</step>
					<octave>4</octave>
				</pitch>
				<voice>1</voice>
				<type>16th</type>
			</note>

			<note>
				<pitch>
					<step>C</step>
					<octave>4</octave>
				</pitch>
				<voice>1</voice>
				<type>16th</type>
			</note>

			<note>
				<pitch>
					<step>A</step>
					<octave>3</octave>
				</pitch>
				<voice>1</voice>
				<type>quarter</type>
			</note>

			<note>
				<pitch>
					<step>F</step>
					<octave>4</octave>
				</pitch>
				<voice>1</voice>
				<type>quarter</type>
			</note>

			<note>
				<pitch>
					<step>G</step>
					<octave>4</octave>
				</pitch>
				<voice>1</voice>
				<type>eighth</type>
			</note>

		</measure>
		<!--=======================================================-->
		<measure number="7">
			<note>
				<pitch>
					<step>C</step>
					<octave>4</octave>
				</pitch>
				<voice>1</voice>
				<type>eighth</type>
			</note>

			<note>
				<pitch>
					<step>F</step>
					<octave>4</octave>
				</pitch>
				<voice>1</voice>
				<type>eighth</type>
			</note>

			<note>
				<pitch>
					<step>F</step>
					<octave>3</octave>
				</pitch>
				<voice>1</voice>
				<type>eighth</type>
			</note>

			<note>
				<pitch>
					<step>A</step>
					<octave>3</octave>
				</pitch>
				<voice>1</voice>
				<type>eighth</type>
			</note>

			<note>
				<pitch>
					<step>F</step>
					<octave>3</octave>
				</pitch>
				<voice>1</voice>
				<type>eighth</type>
			</note>

			<note>
				<pitch>
					<step>A</step>
					<octave>3</octave>
				</pitch>
				<voice>1</voice>
				<type>eighth</type>
			</note>

			<note>
				<pitch>
					<step>C</step>
					<octave>4</octave>
				</pitch>
				<voice>1</voice>
				<type>eighth</type>
			</note>

			<note>
				<pitch>
					<step>F</step>
					<octave>4</octave>
				</pitch>
				<voice>1</voice>
				<type>16th</type>
			</note>

			<note>
				<pitch>
					<step>B</step>
					<alter>-1</alter>
					<octave>4</octave>
				</pitch>
				<voice>1</voice>
				<type>16th</type>
			</note>

		</measure>
		<!--=======================================================-->
		<measure number="8">
			<note>
				<pitch>
					<step>A</step>
					<octave>4</octave>
				</pitch>
				<voice>1</voice>
				<type>16th</type>
			</note>

			<note>
				<pitch>
					<step>G</step>
					<octave>4</octave>
				</pitch>
				<voice>1</voice>
				<type>16th</type>
			</note>

			<note>
				<pitch>
					<step>F</step>
					<octave>4</octave>
				</pitch>
				<voice>1</voice>
				<type>eighth</type>
			</note>

			<note>
				<pitch>
					<step>G</step>
					<octave>4</octave>
				</pitch>
				<voice>1</voice>
				<type>eighth</type>
			</note>

			<note>
				<pitch>
					<step>A</step>
					<octave>4</octave>
				</pitch>
				<voice>1</voice>
				<type>quarter</type>
			</note>

			<note>
				<pitch>
					<step>A</step>
					<octave>4</octave>
				</pitch>
				<voice>1</voice>
				<type>quarter</type>
			</note>

			<note>
				<pitch>
					<step>F</step>
					<octave>4</octave>
				</pitch>
				<voice>1</voice>
				<type>eighth</type>
			</note>

		</measure>
		<!--=======================================================-->
		<measure number="9">
			<note>
				<pitch>
					<step>G</step>
					<octave>4</octave>
				</pitch>
				<voice>1</voice>
				<type>16th</type>
			</note>

			<note>
				<pitch>
					<step>A</step>
					<octave>4</octave>
				</pitch>
				<voice>1</voice>
				<type>16th</type>
			</note>

			<note>
				<pitch>
					<step>B</step>
					<alter>-1</alter>
					<octave>4</octave>
				</pitch>
				<voice>1</voice>
				<type>eighth</type>
			</note>

			<note>
				<pitch>
					<step>C</step>
					<octave>5</octave>
				</pitch>
				<voice>1</voice>
				<type>16th</type>
			</note>

			<note>
				<pitch>
					<step>B</step>
					<alter>-1</alter>
					<octave>4</octave>
				</pitch>
				<voice>1</voice>
				<type>16th</type>
			</note>

			<note>
				<pitch>
					<step>A</step>
					<octave>4</octave>
				</pitch>
				<voice>1</voice>
				<type>eighth</type>
			</note>

			<note>
				<pitch>
					<step>G</step>
					<octave>4</octave>
				</pitch>
				<voice>1</voice>
				<type>eighth</type>
			</note>

			<note>
				<pitch>
					<step>G</step>
					<octave>4</octave>
				</pitch>
				<voice>1</voice>
				<type>eighth</type>
			</note>

			<note>
				<pitch>
					<step>C</step>
					<octave>5</octave>
				</pitch>
				<voice>1</voice>
				<type>eighth</type>
			</note>

			<note>
				<pitch>
					<step>C</step>
					<octave>5</octave>
				</pitch>
				<voice>1</voice>
				<type>eighth</type>
			</note>

		</measure>
		<!--=======================================================-->
		<measure number="10">
			<note>
				<pitch>
					<step>B</step>
					<octave>4</octave>
				</pitch>
				<voice>1</voice>
				<type>16th</type>
			</note>

			<note>
				<pitch>
					<step>A</step>
					<octave>4</octave>
				</pitch>
				<voice>1</voice>
				<type>16th</type>
			</note>

			<note>
				<pitch>
					<step>B</step>
					<octave>4</octave>
				</pitch>
				<voice>1</voice>
				<type>quarter</type>
			</note>

			<note>
				<pitch>
					<step>C</step>
					<octave>5</octave>
				</pitch>
				<voice>1</voice>
				<type>quarter</type>
			</note>

			<note>
				<pitch>
					<step>F</step>
					<octave>4</octave>
				</pitch>
				<voice>1</voice>
				<type>
</type>
			</note>

			<note>
				<pitch>
					<step>F</step>
					<octave>4</octave>
				</pitch>
				<voice>1</voice>
				<type>
</type>
			</note>

			<note>
				<pitch>
					<step>B</step>
					<alter>-1</alter>
					<octave>4</octave>
				</pitch>
				<voice>1</voice>
				<type>eighth</type>
			</note>

			<note>
				<pitch>
					<step>A</step>
					<octave>4</octave>
				</pitch>
				<voice>1</voice>
				<type>eighth</type>
			</note>

			<note>
				<pitch>
					<step>G</step>
					<octave>4</octave>
				</pitch>
				<voice>1</voice>
				<type>eighth</type>
			</note>

		</measure>
		<!--=======================================================-->
		<measure number="11">
			<note>
				<pitch>
					<step>F</step>
					<octave>4</octave>
				</pitch>
				<voice>1</voice>
				<type>eighth</type>
			</note>

			<note>
				<pitch>
					<step>C</step>
					<octave>4</octave>
				</pitch>
				<voice>1</voice>
				<type>eighth</type>
			</note>

			<note>
				<pitch>
					<step>F</step>
					<octave>4</octave>
				</pitch>
				<voice>1</voice>
				<type>eighth</type>
			</note>

			<note>
				<pitch>
					<step>C</step>
					<octave>4</octave>
				</pitch>
				<voice>1</voice>
				<type>eighth</type>
			</note>

			<note>
				<pitch>
					<step>C</step>
					<octave>4</octave>
				</pitch>
				<voice>1</voice>
				<type>eighth</type>
			</note>

			<note>
				<pitch>
					<step>A</step>
					<octave>3</octave>
				</pitch>
				<voice>1</voice>
				<type>16th</type>
			</note>

			<note>
				<pitch>
					<step>F</step>
					<octave>3</octave>
				</pitch>
				<voice>1</voice>
				<type>16th</type>
			</note>

			<note>
				<pitch>
					<step>C</step>
					<octave>4</octave>
				</pitch>
				<voice>1</voice>
				<type>eighth</type>
			</note>

			<note>
				<pitch>
					<step>C</step>
					<octave>4</octave>
				</pitch>
				<voice>1</voice>
				<type>16th</type>
			</note>

			<note>
				<pitch>
					<step>C</step>
					<octave>4</octave>
				</pitch>
				<voice>1</voice>
				<type>16th</type>
			</note>

		</measure>
		<!--=======================================================-->
		<measure number="12">
			<note>
				<pitch>
					<step>A</step>
					<octave>3</octave>
				</pitch>
				<voice>1</voice>
				<type>quarter</type>
			</note>

			<note>
				<rest/>
				<voice>1</voice>
				<type>quarter</type>
			</note>

			<note>
				<pitch>
					<step>G</step>
					<octave>4</octave>
				</pitch>
				<voice>1</voice>
				<type>eighth</type>
			</note>

			<note>
				<pitch>
					<step>C</step>
					<octave>4</octave>
				</pitch>
				<voice>1</voice>
				<type>16th</type>
			</note>

			<note>
				<pitch>
					<step>C</step>
					<octave>4</octave>
				</pitch>
				<voice>1</voice>
				<type>16th</type>
			</note>

			<note>
				<pitch>
					<step>C</step>
					<octave>4</octave>
				</pitch>
				<voice>1</voice>
				<type>16th</type>
			</note>

			<note>
				<pitch>
					<step>C</step>
					<octave>4</octave>
				</pitch>
				<voice>1</voice>
				<type>16th</type>
			</note>

			<note>
				<pitch>
					<step>C</step>
					<octave>4</octave>
				</pitch>
				<voice>1</voice>
				<type>16th</type>
			</note>

			<note>
				<pitch>
					<step>C</step>
					<octave>4</octave>
				</pitch>
				<voice>1</voice>
				<type>16th</type>
			</note>

		</measure>
		<!--=======================================================-->
		<measure number="13">
			<note>
				<pitch>
					<step>F</step>
					<octave>4</octave>
				</pitch>
				<voice>1</voice>
				<type>half</type>
			</note>

			<note>
				<pitch>
					<step>G</step>
					<octave>4</octave>
				</pitch>
				<voice>1</voice>
				<type>16th</type>
			</note>

			<note>
				<pitch>
					<step>F</step>
					<octave>4</octave>
				</pitch>
				<voice>1</voice>
				<type>16th</type>
			</note>

			<note>
				<pitch>
					<step>G</step>
					<octave>4</octave>
				</pitch>
				<voice>1</voice>
				<type>16th</type>
			</note>

			<note>
				<pitch>
					<step>A</step>
					<octave>4</octave>
				</pitch>
				<voice>1</voice>
				<type>16th</type>
			</note>

			<note>
				<pitch>
					<step>G</step>
					<octave>4</octave>
				</pitch>
				<voice>1</voice>
				<type>quarter</type>
			</note>

			<note>
				<pitch>
					<step>F</step>
					<octave>4</octave>
				</pitch>
				<voice>1</voice>
				<type>half</type>
			</note>

			<note>
				<pitch>
					<step>F</step>
					<octave>4</octave>
				</pitch>
				<voice>1</voice>
				<type>eighth</type>
			</note>

			<note>
				<pitch>
					<step>C</step>
					<octave>4</octave>
				</pitch>
				<voice>1</voice>
				<type>eighth</type>
			</note>

			<note>
				<pitch>
					<step>F</step>
					<octave>4</octave>
				</pitch>
				<voice>1</voice>
				<type>eighth</type>
			</note>

			<note>
				<pitch>
					<step>C</step>
					<octave>4</octave>
				</pitch>
				<voice>1</voice>
				<type>eighth</type>
			</note>

		</measure>
		<!--=======================================================-->
		<measure number="14">
			<note>
				<pitch>
					<step>C</step>
					<octave>5</octave>
				</pitch>
				<voice>1</voice>
				<type>eighth</type>
			</note>

			<note>
				<pitch>
					<step>B</step>
					<alter>-1</alter>
					<octave>4</octave>
				</pitch>
				<voice>1</voice>
				<type>16th</type>
			</note>

			<note>
				<pitch>
					<step>A</step>
					<octave>4</octave>
				</pitch>
				<voice>1</voice>
				<type>16th</type>
			</note>

			<note>
				<pitch>
					<step>B</step>
					<alter>-1</alter>
					<octave>4</octave>
				</pitch>
				<voice>1</voice>
				<type>eighth</type>
			</note>

			<note>
				<pitch>
					<step>C</step>
					<octave>5</octave>
				</pitch>
				<voice>1</voice>
				<type>16th</type>
			</note>

			<note>
				<pitch>
					<step>B</step>
					<alter>-1</alter>
					<octave>4</octave>
				</pitch>
				<voice>1</voice>
				<type>16th</type>
			</note>

			<note>
				<pitch>
					<step>A</step>
					<octave>4</octave>
				</pitch>
				<voice>1</voice>
				<type>eighth</type>
			</note>

			<note>
				<pitch>
					<step>G</step>
					<octave>4</octave>
				</pitch>
				<voice>1</voice>
				<type>eighth</type>
			</note>

			<note>
				<pitch>
					<step>F</step>
					<octave>4</octave>
				</pitch>
				<voice>1</voice>
				<type>eighth</type>
			</note>

			<note>
				<pitch>
					<step>C</step>
					<octave>4</octave>
				</pitch>
				<voice>1</voice>
				<type>eighth</type>
			</note>

		</measure>
		<!--=======================================================-->
		<measure number="15">
			<note>
				<pitch>
					<step>C</step>
					<octave>5</octave>
				</pitch>
				<voice>1</voice>
				<type>quarter</type>
			</note>

			<note>
				<pitch>
					<step>C</step>
					<octave>4</octave>
				</pitch>
				<voice>1</voice>
				<type>eighth</type>
			</note>

			<note>
				<pitch>
					<step>G</step>
					<octave>4</octave>
				</pitch>
				<voice>1</voice>
				<type>eighth</type>
			</note>

			<note>
				<pitch>
					<step>F</step>
					<octave>4</octave>
				</pitch>
				<voice>1</voice>
				<type>16th</type>
			</note>

			<note>
				<pitch>
					<step>E</step>
					<octave>4</octave>
				</pitch>
				<voice>1</voice>
				<type>16th</type>
			</note>

			<note>
				<pitch>
					<step>F</step>
					<octave>4</octave>
				</pitch>
				<voice>1</voice>
				<type>
</type>
			</note>

			<note>
				<pitch>
					<step>F</step>
					<octave>4</octave>
				</pitch>
				<voice>1</voice>
				<type>
</type>
			</note>

			<note>
				<pitch>
					<step>F</step>
					<octave>3</octave>
				</pitch>
				<voice>1</voice>
				<type>eighth</type>
			</note>

			<note>
				<pitch>
					<step>C</step>
					<octave>4</octave>
				</pitch>
				<voice>1</voice>
				<type>eighth</type>
			</note>

			<note>
				<pitch>
					<step>C</step>
					<octave>4</octave>
				</pitch>
				<voice>1</voice>
				<type>16th</type>
			</note>

			<note>
				<pitch>
					<step>C</step>
					<octave>4</octave>
				</pitch>
				<voice>1</voice>
				<type>16th</type>
			</note>

		</measure>
		<!--=======================================================-->
		<measure number="16">
			<note>
				<pitch>
					<step>A</step>
					<octave>3</octave>
				</pitch>
				<voice>1</voice>
				<type>half</type>
			</note>

			<note>
				<pitch>
					<step>A</step>
					<octave>4</octave>
				</pitch>
				<voice>1</voice>
				<type>16th</type>
			</note>

			<note>
				<pitch>
					<step>G</step>
					<octave>4</octave>
				</pitch>
				<voice>1</voice>
				<type>16th</type>
			</note>

			<note>
				<pitch>
					<step>A</step>
					<octave>4</octave>
				</pitch>
				<voice>1</voice>
				<type>16th</type>
			</note>

			<note>
				<pitch>
					<step>B</step>
					<alter>-1</alter>
					<octave>4</octave>
				</pitch>
				<voice>1</voice>
				<type>16th</type>
			</note>

			<note>
				<pitch>
					<step>C</step>
					<octave>5</octave>
				</pitch>
				<voice>1</voice>
				<type>
</type>
			</note>

			<note>
				<pitch>
					<step>C</step>
					<octave>5</octave>
				</pitch>
				<voice>1</voice>
				<type>
</type>
			</note>

			<note>
				<pitch>
					<step>B</step>
					<alter>-1</alter>
					<octave>4</octave>
				</pitch>
				<voice>1</voice>
				<type>quarter</type>
			</note>

			<note>
				<pitch>
					<step>A</step>
					<octave>4</octave>
				</pitch>
				<voice>1</voice>
				<type>
</type>
			</note>

			<note>
				<pitch>
					<step>A</step>
					<octave>4</octave>
				</pitch>
				<voice>1</voice>
				<type>
</type>
			</note>

			<note>
				<pitch>
					<step>G</step>
					<octave>4</octave>
				</pitch>
				<voice>1</voice>
				<type>quarter</type>
			</note>

			<note>
				<pitch>
					<step>F</step>
					<octave>4</octave>
				</pitch>
				<voice>1</voice>
				<type>
</type>
			</note>

			<note>
				<pitch>
					<step>F</step>
					<octave>4</octave>
				</pitch>
				<voice>1</voice>
				<type>
</type>
			</note>

			<note>
				<pitch>
					<step>F</step>
					<octave>3</octave>
				</pitch>
				<voice>1</voice>
				<type>eighth</type>
			</note>

			<note>
				<pitch>
					<step>C</step>
					<octave>4</octave>
				</pitch>
				<voice>1</voice>
				<type>eighth</type>
			</note>

		</measure>
		<!--=======================================================-->
		<measure number="17">
			<note>
				<pitch>
					<step>C</step>
					<octave>4</octave>
				</pitch>
				<voice>1</voice>
				<type>16th</type>
			</note>

			<note>
				<pitch>
					<step>C</step>
					<octave>4</octave>
				</pitch>
				<voice>1</voice>
				<type>16th</type>
			</note>

			<note>
				<pitch>
					<step>A</step>
					<octave>3</octave>
				</pitch>
				<voice>1</voice>
				<type>quarter</type>
			</note>

		</measure>
		</part>
	<part id ="P2">
		<measure number="0">
			<attributes>
				<divisions>4</divisions>
				<key>
					<fifths>-1</fifths>
					<mode>major</mode>
				</key>
				<time symbol="common">
					<beats>4</beats>
					<beat-type>4</beat-type>
				</time>
			</attributes>
			<sound tempo="76"/>
		</measure>
		<!--=======================================================-->
		<measure number="1">
			<note>
				<pitch>
					<step>F</step>
					<octave>4</octave>
				</pitch>
				<voice>1</voice>
				<type>quarter</type>
			</note>

			<note>
				<pitch>
					<step>C</step>
					<octave>5</octave>
				</pitch>
				<voice>1</voice>
				<type>quarter</type>
			</note>

			<note>
				<pitch>
					<step>A</step>
					<octave>4</octave>
				</pitch>
				<voice>1</voice>
				<type>quarter</type>
			</note>

			<note>
				<pitch>
					<step>F</step>
					<octave>4</octave>
				</pitch>
				<voice>1</voice>
				<type>quarter</type>
			</note>

		</measure>
		<!--=======================================================-->
		<measure number="2">
			<note>
				<pitch>
					<step>C</step>
					<octave>5</octave>
				</pitch>
				<voice>1</voice>
				<type>quarter</type>
			</note>

			<note>
				<pitch>
					<step>D</step>
					<octave>5</octave>
				</pitch>
				<voice>1</voice>
				<type>quarter</type>
			</note>

			<note>
				<pitch>
					<step>D</step>
					<octave>5</octave>
				</pitch>
				<voice>1</voice>
				<type>quarter</type>
			</note>

			<note>
				<pitch>
					<step>C</step>
					<octave>5</octave>
				</pitch>
				<voice>1</voice>
				<type>quarter</type>
			</note>

		</measure>
		<!--=======================================================-->
		<measure number="3">
			<note>
				<pitch>
					<step>C</step>
					<octave>5</octave>
				</pitch>
				<voice>1</voice>
				<type>quarter</type>
			</note>

			<note>
				<pitch>
					<step>D</step>
					<octave>5</octave>
				</pitch>
				<voice>1</voice>
				<type>quarter</type>
			</note>

			<note>
				<pitch>
					<step>E</step>
					<octave>5</octave>
				</pitch>
				<voice>1</voice>
				<type>quarter</type>
			</note>

			<note>
				<pitch>
					<step>F</step>
					<octave>5</octave>
				</pitch>
				<voice>1</voice>
				<type>quarter</type>
			</note>

		</measure>
		<!--=======================================================-->
		<measure number="4">
			<note>
				<pitch>
					<step>E</step>
					<octave>5</octave>
				</pitch>
				<voice>1</voice>
				<type>quarter</type>
			</note>

			<note>
				<pitch>
					<step>D</step>
					<octave>5</octave>
				</pitch>
				<voice>1</voice>
				<type>quarter</type>
			</note>

			<note>
				<pitch>
					<step>D</step>
					<octave>5</octave>
				</pitch>
				<voice>1</voice>
				<type>quarter</type>
			</note>

			<note>
				<pitch>
					<step>C</step>
					<octave>5</octave>
				</pitch>
				<voice>1</voice>
				<type>quarter</type>
			</note>

		</measure>
		<!--=======================================================-->
		<measure number="5">
			<note>
				<pitch>
					<step>A</step>
					<octave>4</octave>
				</pitch>
				<voice>1</voice>
				<type>quarter</type>
			</note>

			<note>
				<pitch>
					<step>D</step>
					<octave>5</octave>
				</pitch>
				<voice>1</voice>
				<type>quarter</type>
			</note>

			<note>
				<pitch>
					<step>C</step>
					<octave>5</octave>
				</pitch>
				<voice>1</voice>
				<type>quarter</type>
			</note>

			<note>
				<pitch>
					<step>B</step>
					<alter>-1</alter>
					<octave>4</octave>
				</pitch>
				<voice>1</voice>
				<type>quarter</type>
			</note>

		</measure>
		<!--=======================================================-->
		<measure number="6">
			<note>
				<pitch>
					<step>A</step>
					<octave>4</octave>
				</pitch>
				<voice>1</voice>
				<type>quarter</type>
			</note>

			<note>
				<pitch>
					<step>G</step>
					<octave>4</octave>
				</pitch>
				<voice>1</voice>
				<type>half</type>
			</note>

			<note>
				<pitch>
					<step>F</step>
					<octave>4</octave>
				</pitch>
				<voice>1</voice>
				<type>quarter</type>
			</note>

			<note>
				<pitch>
					<step>F</step>
					<octave>4</octave>
				</pitch>
				<voice>1</voice>
				<type>quarter</type>
			</note>

			<note>
				<pitch>
					<step>C</step>
					<octave>5</octave>
				</pitch>
				<voice>1</voice>
				<type>quarter</type>
			</note>

		</measure>
		<!--=======================================================-->
		<measure number="7">
			<note>
				<pitch>
					<step>A</step>
					<octave>4</octave>
				</pitch>
				<voice>1</voice>
				<type>quarter</type>
			</note>

			<note>
				<pitch>
					<step>F</step>
					<octave>4</octave>
				</pitch>
				<voice>1</voice>
				<type>quarter</type>
			</note>

			<note>
				<pitch>
					<step>C</step>
					<octave>5</octave>
				</pitch>
				<voice>1</voice>
				<type>quarter</type>
			</note>

			<note>
				<pitch>
					<step>D</step>
					<octave>5</octave>
				</pitch>
				<voice>1</voice>
				<type>quarter</type>
			</note>

		</measure>
		<!--=======================================================-->
		<measure number="8">
			<note>
				<pitch>
					<step>D</step>
					<octave>5</octave>
				</pitch>
				<voice>1</voice>
				<type>quarter</type>
			</note>

			<note>
				<pitch>
					<step>C</step>
					<octave>5</octave>
				</pitch>
				<voice>1</voice>
				<type>quarter</type>
			</note>

			<note>
				<pitch>
					<step>C</step>
					<octave>5</octave>
				</pitch>
				<voice>1</voice>
				<type>quarter</type>
			</note>

			<note>
				<pitch>
					<step>D</step>
					<octave>5</octave>
				</pitch>
				<voice>1</voice>
				<type>quarter</type>
			</note>

		</measure>
		<!--=======================================================-->
		<measure number="9">
			<note>
				<pitch>
					<step>E</step>
					<octave>5</octave>
				</pitch>
				<voice>1</voice>
				<type>quarter</type>
			</note>

			<note>
				<pitch>
					<step>F</step>
					<octave>5</octave>
				</pitch>
				<voice>1</voice>
				<type>quarter</type>
			</note>

			<note>
				<pitch>
					<step>E</step>
					<octave>5</octave>
				</pitch>
				<voice>1</voice>
				<type>quarter</type>
			</note>

			<note>
				<pitch>
					<step>D</step>
					<octave>5</octave>
				</pitch>
				<voice>1</voice>
				<type>quarter</type>
			</note>

		</measure>
		<!--=======================================================-->
		<measure number="10">
			<note>
				<pitch>
					<step>D</step>
					<octave>5</octave>
				</pitch>
				<voice>1</voice>
				<type>quarter</type>
			</note>

			<note>
				<pitch>
					<step>C</step>
					<octave>5</octave>
				</pitch>
				<voice>1</voice>
				<type>quarter</type>
			</note>

			<note>
				<pitch>
					<step>A</step>
					<octave>4</octave>
				</pitch>
				<voice>1</voice>
				<type>quarter</type>
			</note>

			<note>
				<pitch>
					<step>D</step>
					<octave>5</octave>
				</pitch>
				<voice>1</voice>
				<type>quarter</type>
			</note>

		</measure>
		<!--=======================================================-->
		<measure number="11">
			<note>
				<pitch>
					<step>C</step>
					<octave>5</octave>
				</pitch>
				<voice>1</voice>
				<type>quarter</type>
			</note>

			<note>
				<pitch>
					<step>B</step>
					<alter>-1</alter>
					<octave>4</octave>
				</pitch>
				<voice>1</voice>
				<type>quarter</type>
			</note>

			<note>
				<pitch>
					<step>A</step>
					<octave>4</octave>
				</pitch>
				<voice>1</voice>
				<type>quarter</type>
			</note>

			<note>
				<pitch>
					<step>G</step>
					<octave>4</octave>
				</pitch>
				<voice>1</voice>
				<type>half</type>
			</note>

			<note>
				<pitch>
					<step>F</step>
					<octave>4</octave>
				</pitch>
				<voice>1</voice>
				<type>quarter</type>
			</note>

		</measure>
		<!--=======================================================-->
		<measure number="12">
			<note>
				<rest/>
				<voice>1</voice>
				<type>quarter</type>
			</note>

			<note>
				<pitch>
					<step>C</step>
					<octave>5</octave>
				</pitch>
				<voice>1</voice>
				<type>half</type>
			</note>

			<note>
				<pitch>
					<step>A</step>
					<octave>4</octave>
				</pitch>
				<voice>1</voice>
				<type>half</type>
			</note>

			<note>
				<pitch>
					<step>C</step>
					<octave>5</octave>
				</pitch>
				<voice>1</voice>
				<type>half</type>
			</note>

			<note>
				<pitch>
					<step>A</step>
					<octave>4</octave>
				</pitch>
				<voice>1</voice>
				<type>half</type>
			</note>

			<note>
				<pitch>
					<step>A</step>
					<octave>4</octave>
				</pitch>
				<voice>1</voice>
				<type>quarter</type>
			</note>

			<note>
				<pitch>
					<step>A</step>
					<octave>4</octave>
				</pitch>
				<voice>1</voice>
				<type>quarter</type>
			</note>

			<note>
				<pitch>
					<step>G</step>
					<octave>4</octave>
				</pitch>
				<voice>1</voice>
				<type>quarter</type>
			</note>

		</measure>
		<!--=======================================================-->
		<measure number="13">
			<note>
				<pitch>
					<step>G</step>
					<octave>4</octave>
				</pitch>
				<voice>1</voice>
				<type>quarter</type>
			</note>

			<note>
				<pitch>
					<step>A</step>
					<octave>4</octave>
				</pitch>
				<voice>1</voice>
				<type>quarter</type>
			</note>

			<note>
				<pitch>
					<step>A</step>
					<octave>4</octave>
				</pitch>
				<voice>1</voice>
				<type>quarter</type>
			</note>

			<note>
				<pitch>
					<step>G</step>
					<octave>4</octave>
				</pitch>
				<voice>1</voice>
				<type>quarter</type>
			</note>

		</measure>
		<!--=======================================================-->
		<measure number="14">
			<note>
				<pitch>
					<step>A</step>
					<octave>4</octave>
				</pitch>
				<voice>1</voice>
				<type>quarter</type>
			</note>

			<note>
				<pitch>
					<step>B</step>
					<alter>-1</alter>
					<octave>4</octave>
				</pitch>
				<voice>1</voice>
				<type>quarter</type>
			</note>

			<note>
				<pitch>
					<step>A</step>
					<octave>4</octave>
				</pitch>
				<voice>1</voice>
				<type>quarter</type>
			</note>

			<note>
				<pitch>
					<step>G</step>
					<octave>4</octave>
				</pitch>
				<voice>1</voice>
				<type>half</type>
			</note>

			<note>
				<pitch>
					<step>F</step>
					<octave>4</octave>
				</pitch>
				<voice>1</voice>
				<type>half</type>
			</note>

			<note>
				<pitch>
					<step>F</step>
					<octave>5</octave>
				</pitch>
				<voice>1</voice>
				<type>quarter</type>
			</note>

		</measure>
		<!--=======================================================-->
		<measure number="15">
			<note>
				<pitch>
					<step>E</step>
					<octave>5</octave>
				</pitch>
				<voice>1</voice>
				<type>quarter</type>
			</note>

			<note>
				<pitch>
					<step>D</step>
					<octave>5</octave>
				</pitch>
				<voice>1</voice>
				<type>quarter</type>
			</note>

			<note>
				<pitch>
					<step>C</step>
					<octave>5</octave>
				</pitch>
				<voice>1</voice>
				<type>quarter</type>
			</note>

			<note>
				<pitch>
					<step>B</step>
					<alter>-1</alter>
					<octave>4</octave>
				</pitch>
				<voice>1</voice>
				<type>quarter</type>
			</note>

		</measure>
		<!--=======================================================-->
		<measure number="16">
			<note>
				<pitch>
					<step>A</step>
					<octave>4</octave>
				</pitch>
				<voice>1</voice>
				<type>quarter</type>
			</note>

			<note>
				<pitch>
					<step>G</step>
					<octave>4</octave>
				</pitch>
				<voice>1</voice>
				<type>half</type>
			</note>

			<note>
				<pitch>
					<step>F</step>
					<octave>4</octave>
				</pitch>
				<voice>1</voice>
				<type>quarter</type>
			</note>

		</measure>
		</part>
	<part id ="P3">
		<measure number="0">
			<attributes>
				<divisions>4</divisions>
				<key>
					<fifths>-1</fifths>
					<mode>major</mode>
				</key>
				<time symbol="common">
					<beats>4</beats>
					<beat-type>4</beat-type>
				</time>
			</attributes>
			<sound tempo="76"/>
		</measure>
		<!--=======================================================-->
		<measure number="1">
			<note>
				<pitch>
					<step>C</step>
					<octave>4</octave>
				</pitch>
				<voice>1</voice>
				<type>quarter</type>
			</note>

			<note>
				<pitch>
					<step>C</step>
					<octave>4</octave>
				</pitch>
				<voice>1</voice>
				<type>quarter</type>
			</note>

			<note>
				<pitch>
					<step>C</step>
					<octave>4</octave>
				</pitch>
				<voice>1</voice>
				<type>quarter</type>
			</note>

			<note>
				<pitch>
					<step>D</step>
					<octave>4</octave>
				</pitch>
				<voice>1</voice>
				<type>quarter</type>
			</note>

		</measure>
		<!--=======================================================-->
		<measure number="2">
			<note>
				<pitch>
					<step>F</step>
					<octave>4</octave>
				</pitch>
				<voice>1</voice>
				<type>quarter</type>
			</note>

			<note>
				<pitch>
					<step>B</step>
					<alter>-1</alter>
					<octave>4</octave>
				</pitch>
				<voice>1</voice>
				<type>quarter</type>
			</note>

			<note>
				<pitch>
					<step>B</step>
					<alter>-1</alter>
					<octave>4</octave>
				</pitch>
				<voice>1</voice>
				<type>quarter</type>
			</note>

			<note>
				<pitch>
					<step>A</step>
					<octave>4</octave>
				</pitch>
				<voice>1</voice>
				<type>quarter</type>
			</note>

		</measure>
		<!--=======================================================-->
		<measure number="3">
			<note>
				<pitch>
					<step>A</step>
					<octave>4</octave>
				</pitch>
				<voice>1</voice>
				<type>quarter</type>
			</note>

			<note>
				<pitch>
					<step>B</step>
					<alter>-1</alter>
					<octave>4</octave>
				</pitch>
				<voice>1</voice>
				<type>quarter</type>
			</note>

			<note>
				<pitch>
					<step>B</step>
					<alter>-1</alter>
					<octave>4</octave>
				</pitch>
				<voice>1</voice>
				<type>quarter</type>
			</note>

			<note>
				<pitch>
					<step>C</step>
					<octave>5</octave>
				</pitch>
				<voice>1</voice>
				<type>eighth</type>
			</note>

			<note>
				<pitch>
					<step>D</step>
					<octave>5</octave>
				</pitch>
				<voice>1</voice>
				<type>eighth</type>
			</note>

		</measure>
		<!--=======================================================-->
		<measure number="4">
			<note>
				<pitch>
					<step>C</step>
					<octave>5</octave>
				</pitch>
				<voice>1</voice>
				<type>eighth</type>
			</note>

			<note>
				<pitch>
					<step>G</step>
					<octave>4</octave>
				</pitch>
				<voice>1</voice>
				<type>eighth</type>
			</note>

			<note>
				<pitch>
					<step>A</step>
					<octave>4</octave>
				</pitch>
				<voice>1</voice>
				<type>quarter</type>
			</note>

			<note>
				<pitch>
					<step>G</step>
					<octave>4</octave>
				</pitch>
				<voice>1</voice>
				<type>quarter</type>
			</note>

			<note>
				<pitch>
					<step>G</step>
					<octave>4</octave>
				</pitch>
				<voice>1</voice>
				<type>quarter</type>
			</note>

		</measure>
		<!--=======================================================-->
		<measure number="5">
			<note>
				<pitch>
					<step>F</step>
					<octave>4</octave>
				</pitch>
				<voice>1</voice>
				<type>quarter</type>
			</note>

			<note>
				<pitch>
					<step>F</step>
					<octave>4</octave>
				</pitch>
				<voice>1</voice>
				<type>quarter</type>
			</note>

			<note>
				<pitch>
					<step>E</step>
					<octave>4</octave>
				</pitch>
				<voice>1</voice>
				<type>quarter</type>
			</note>

			<note>
				<pitch>
					<step>F</step>
					<octave>4</octave>
				</pitch>
				<voice>1</voice>
				<type>eighth</type>
			</note>

			<note>
				<pitch>
					<step>G</step>
					<octave>4</octave>
				</pitch>
				<voice>1</voice>
				<type>eighth</type>
			</note>

		</measure>
		<!--=======================================================-->
		<measure number="6">
			<note>
				<pitch>
					<step>C</step>
					<octave>4</octave>
				</pitch>
				<voice>1</voice>
				<type>eighth</type>
			</note>

			<note>
				<pitch>
					<step>F</step>
					<octave>4</octave>
				</pitch>
				<voice>1</voice>
				<type>eighth</type>
			</note>

			<note>
				<pitch>
					<step>F</step>
					<octave>4</octave>
				</pitch>
				<voice>1</voice>
				<type>quarter</type>
			</note>

			<note>
				<pitch>
					<step>E</step>
					<octave>4</octave>
				</pitch>
				<voice>1</voice>
				<type>quarter</type>
			</note>

			<note>
				<pitch>
					<step>C</step>
					<octave>4</octave>
				</pitch>
				<voice>1</voice>
				<type>quarter</type>
			</note>

		</measure>
		<!--=======================================================-->
		<measure number="7">
			<note>
				<pitch>
					<step>C</step>
					<octave>4</octave>
				</pitch>
				<voice>1</voice>
				<type>quarter</type>
			</note>

			<note>
				<pitch>
					<step>C</step>
					<octave>4</octave>
				</pitch>
				<voice>1</voice>
				<type>quarter</type>
			</note>

			<note>
				<pitch>
					<step>C</step>
					<octave>4</octave>
				</pitch>
				<voice>1</voice>
				<type>quarter</type>
			</note>

			<note>
				<pitch>
					<step>D</step>
					<octave>4</octave>
				</pitch>
				<voice>1</voice>
				<type>quarter</type>
			</note>

		</measure>
		<!--=======================================================-->
		<measure number="8">
			<note>
				<pitch>
					<step>F</step>
					<octave>4</octave>
				</pitch>
				<voice>1</voice>
				<type>quarter</type>
			</note>

			<note>
				<pitch>
					<step>B</step>
					<alter>-1</alter>
					<octave>4</octave>
				</pitch>
				<voice>1</voice>
				<type>quarter</type>
			</note>

			<note>
				<pitch>
					<step>B</step>
					<alter>-1</alter>
					<octave>4</octave>
				</pitch>
				<voice>1</voice>
				<type>quarter</type>
			</note>

			<note>
				<pitch>
					<step>A</step>
					<octave>4</octave>
				</pitch>
				<voice>1</voice>
				<type>quarter</type>
			</note>

		</measure>
		<!--=======================================================-->
		<measure number="9">
			<note>
				<pitch>
					<step>A</step>
					<octave>4</octave>
				</pitch>
				<voice>1</voice>
				<type>quarter</type>
			</note>

			<note>
				<pitch>
					<step>B</step>
					<alter>-1</alter>
					<octave>4</octave>
				</pitch>
				<voice>1</voice>
				<type>quarter</type>
			</note>

			<note>
				<pitch>
					<step>B</step>
					<alter>-1</alter>
					<octave>4</octave>
				</pitch>
				<voice>1</voice>
				<type>quarter</type>
			</note>

			<note>
				<pitch>
					<step>C</step>
					<octave>5</octave>
				</pitch>
				<voice>1</voice>
				<type>eighth</type>
			</note>

			<note>
				<pitch>
					<step>D</step>
					<octave>5</octave>
				</pitch>
				<voice>1</voice>
				<type>eighth</type>
			</note>

		</measure>
		<!--=======================================================-->
		<measure number="10">
			<note>
				<pitch>
					<step>C</step>
					<octave>5</octave>
				</pitch>
				<voice>1</voice>
				<type>eighth</type>
			</note>

			<note>
				<pitch>
					<step>G</step>
					<octave>4</octave>
				</pitch>
				<voice>1</voice>
				<type>eighth</type>
			</note>

			<note>
				<pitch>
					<step>A</step>
					<octave>4</octave>
				</pitch>
				<voice>1</voice>
				<type>quarter</type>
			</note>

			<note>
				<pitch>
					<step>G</step>
					<octave>4</octave>
				</pitch>
				<voice>1</voice>
				<type>quarter</type>
			</note>

			<note>
				<pitch>
					<step>G</step>
					<octave>4</octave>
				</pitch>
				<voice>1</voice>
				<type>quarter</type>
			</note>

		</measure>
		<!--=======================================================-->
		<measure number="11">
			<note>
				<pitch>
					<step>F</step>
					<octave>4</octave>
				</pitch>
				<voice>1</voice>
				<type>quarter</type>
			</note>

			<note>
				<pitch>
					<step>F</step>
					<octave>4</octave>
				</pitch>
				<voice>1</voice>
				<type>quarter</type>
			</note>

			<note>
				<pitch>
					<step>E</step>
					<octave>4</octave>
				</pitch>
				<voice>1</voice>
				<type>quarter</type>
			</note>

			<note>
				<pitch>
					<step>F</step>
					<octave>4</octave>
				</pitch>
				<voice>1</voice>
				<type>eighth</type>
			</note>

			<note>
				<pitch>
					<step>G</step>
					<octave>4</octave>
				</pitch>
				<voice>1</voice>
				<type>eighth</type>
			</note>

		</measure>
		<!--=======================================================-->
		<measure number="12">
			<note>
				<pitch>
					<step>C</step>
					<octave>4</octave>
				</pitch>
				<voice>1</voice>
				<type>eighth</type>
			</note>

			<note>
				<pitch>
					<step>F</step>
					<octave>4</octave>
				</pitch>
				<voice>1</voice>
				<type>eighth</type>
			</note>

			<note>
				<pitch>
					<step>F</step>
					<octave>4</octave>
				</pitch>
				<voice>1</voice>
				<type>quarter</type>
			</note>

			<note>
				<pitch>
					<step>E</step>
					<octave>4</octave>
				</pitch>
				<voice>1</voice>
				<type>quarter</type>
			</note>

			<note>
				<pitch>
					<step>C</step>
					<octave>4</octave>
				</pitch>
				<voice>1</voice>
				<type>quarter</type>
			</note>

		</measure>
		<!--=======================================================-->
		<measure number="13">
			<note>
				<rest/>
				<voice>1</voice>
				<type>quarter</type>
			</note>

			<note>
				<pitch>
					<step>G</step>
					<octave>4</octave>
				</pitch>
				<voice>1</voice>
				<type>half</type>
			</note>

			<note>
				<pitch>
					<step>F</step>
					<octave>4</octave>
				</pitch>
				<voice>1</voice>
				<type>half</type>
			</note>

			<note>
				<pitch>
					<step>F</step>
					<octave>4</octave>
				</pitch>
				<voice>1</voice>
				<type>eighth</type>
			</note>

			<note>
				<pitch>
					<step>E</step>
					<octave>4</octave>
				</pitch>
				<voice>1</voice>
				<type>16th</type>
			</note>

			<note>
				<pitch>
					<step>D</step>
					<octave>4</octave>
				</pitch>
				<voice>1</voice>
				<type>16th</type>
			</note>

			<note>
				<pitch>
					<step>E</step>
					<octave>4</octave>
				</pitch>
				<voice>1</voice>
				<type>quarter</type>
			</note>

			<note>
				<pitch>
					<step>F</step>
					<octave>4</octave>
				</pitch>
				<voice>1</voice>
				<type>half</type>
			</note>

			<note>
				<pitch>
					<step>F</step>
					<octave>4</octave>
				</pitch>
				<voice>1</voice>
				<type>quarter</type>
			</note>

		</measure>
		<!--=======================================================-->
		<measure number="14">
			<note>
				<pitch>
					<step>F</step>
					<octave>4</octave>
				</pitch>
				<voice>1</voice>
				<type>quarter</type>
			</note>

			<note>
				<pitch>
					<step>E</step>
					<octave>4</octave>
				</pitch>
				<voice>1</voice>
				<type>quarter</type>
			</note>

			<note>
				<pitch>
					<step>E</step>
					<octave>4</octave>
				</pitch>
				<voice>1</voice>
				<type>quarter</type>
			</note>

			<note>
				<pitch>
					<step>F</step>
					<octave>4</octave>
				</pitch>
				<voice>1</voice>
				<type>quarter</type>
			</note>

		</measure>
		<!--=======================================================-->
		<measure number="15">
			<note>
				<pitch>
					<step>F</step>
					<octave>4</octave>
				</pitch>
				<voice>1</voice>
				<type>quarter</type>
			</note>

			<note>
				<pitch>
					<step>E</step>
					<octave>4</octave>
				</pitch>
				<voice>1</voice>
				<type>quarter</type>
			</note>

			<note>
				<pitch>
					<step>F</step>
					<octave>4</octave>
				</pitch>
				<voice>1</voice>
				<type>quarter</type>
			</note>

			<note>
				<pitch>
					<step>G</step>
					<octave>4</octave>
				</pitch>
				<voice>1</voice>
				<type>quarter</type>
			</note>

		</measure>
		<!--=======================================================-->
		<measure number="16">
			<note>
				<pitch>
					<step>F</step>
					<octave>4</octave>
				</pitch>
				<voice>1</voice>
				<type>eighth</type>
			</note>

			<note>
				<pitch>
					<step>E</step>
					<octave>4</octave>
				</pitch>
				<voice>1</voice>
				<type>eighth</type>
			</note>

			<note>
				<pitch>
					<step>D</step>
					<octave>4</octave>
				</pitch>
				<voice>1</voice>
				<type>quarter</type>
			</note>

			<note>
				<pitch>
					<step>E</step>
					<octave>4</octave>
				</pitch>
				<voice>1</voice>
				<type>quarter</type>
			</note>

			<note>
				<pitch>
					<step>F</step>
					<octave>4</octave>
				</pitch>
				<voice>1</voice>
				<type>half</type>
			</note>

			<note>
				<pitch>
					<step>A</step>
					<octave>4</octave>
				</pitch>
				<voice>1</voice>
				<type>quarter</type>
			</note>

		</measure>
		<!--=======================================================-->
		<measure number="17">
			<note>
				<pitch>
					<step>A</step>
					<octave>4</octave>
				</pitch>
				<voice>1</voice>
				<type>eighth</type>
			</note>

			<note>
				<pitch>
					<step>G</step>
					<octave>4</octave>
				</pitch>
				<voice>1</voice>
				<type>eighth</type>
			</note>

			<note>
				<pitch>
					<step>F</step>
					<octave>4</octave>
				</pitch>
				<voice>1</voice>
				<type>quarter</type>
			</note>

			<note>
				<pitch>
					<step>F</step>
					<octave>4</octave>
				</pitch>
				<voice>1</voice>
				<type>quarter</type>
			</note>

			<note>
				<pitch>
					<step>F</step>
					<octave>4</octave>
				</pitch>
				<voice>1</voice>
				<type>eighth</type>
			</note>

			<note>
				<pitch>
					<step>E</step>
					<octave>4</octave>
				</pitch>
				<voice>1</voice>
				<type>eighth</type>
			</note>

		</measure>
		<!--=======================================================-->
		<measure number="18">
			<note>
				<pitch>
					<step>C</step>
					<octave>4</octave>
				</pitch>
				<voice>1</voice>
				<type>eighth</type>
			</note>

			<note>
				<pitch>
					<step>F</step>
					<octave>4</octave>
				</pitch>
				<voice>1</voice>
				<type>eighth</type>
			</note>

			<note>
				<pitch>
					<step>F</step>
					<octave>4</octave>
				</pitch>
				<voice>1</voice>
				<type>quarter</type>
			</note>

			<note>
				<pitch>
					<step>E</step>
					<octave>4</octave>
				</pitch>
				<voice>1</voice>
				<type>quarter</type>
			</note>

			<note>
				<pitch>
					<step>C</step>
					<octave>4</octave>
				</pitch>
				<voice>1</voice>
				<type>quarter</type>
			</note>

		</measure>
		</measure>
		</part>
	<part id ="P4">
		<measure number="0">
			<attributes>
				<divisions>4</divisions>
				<key>
					<fifths>-1</fifths>
					<mode>major</mode>
				</key>
				<time symbol="common">
					<beats>4</beats>
					<beat-type>4</beat-type>
				</time>
			</attributes>
			<sound tempo="76"/>
		</measure>
		<!--=======================================================-->
		<measure number="1">
			<note>
				<pitch>
					<step>A</step>
					<octave>3</octave>
				</pitch>
				<voice>1</voice>
				<type>quarter</type>
			</note>

			<note>
				<pitch>
					<step>G</step>
					<octave>3</octave>
				</pitch>
				<voice>1</voice>
				<type>quarter</type>
			</note>

			<note>
				<pitch>
					<step>A</step>
					<octave>3</octave>
				</pitch>
				<voice>1</voice>
				<type>quarter</type>
			</note>

			<note>
				<pitch>
					<step>A</step>
					<octave>3</octave>
				</pitch>
				<voice>1</voice>
				<type>quarter</type>
			</note>

		</measure>
		<!--=======================================================-->
		<measure number="2">
			<note>
				<pitch>
					<step>A</step>
					<octave>3</octave>
				</pitch>
				<voice>1</voice>
				<type>quarter</type>
			</note>

			<note>
				<pitch>
					<step>F</step>
					<octave>3</octave>
				</pitch>
				<voice>1</voice>
				<type>quarter</type>
			</note>

			<note>
				<pitch>
					<step>F</step>
					<octave>4</octave>
				</pitch>
				<voice>1</voice>
				<type>quarter</type>
			</note>

			<note>
				<pitch>
					<step>F</step>
					<octave>4</octave>
				</pitch>
				<voice>1</voice>
				<type>quarter</type>
			</note>

		</measure>
		<!--=======================================================-->
		<measure number="3">
			<note>
				<pitch>
					<step>F</step>
					<octave>4</octave>
				</pitch>
				<voice>1</voice>
				<type>quarter</type>
			</note>

			<note>
				<pitch>
					<step>F</step>
					<octave>4</octave>
				</pitch>
				<voice>1</voice>
				<type>quarter</type>
			</note>

			<note>
				<pitch>
					<step>G</step>
					<octave>4</octave>
				</pitch>
				<voice>1</voice>
				<type>quarter</type>
			</note>

			<note>
				<pitch>
					<step>F</step>
					<octave>4</octave>
				</pitch>
				<voice>1</voice>
				<type>eighth</type>
			</note>

			<note>
				<pitch>
					<step>D</step>
					<octave>4</octave>
				</pitch>
				<voice>1</voice>
				<type>eighth</type>
			</note>

		</measure>
		<!--=======================================================-->
		<measure number="4">
			<note>
				<pitch>
					<step>E</step>
					<octave>4</octave>
				</pitch>
				<voice>1</voice>
				<type>quarter</type>
			</note>

			<note>
				<pitch>
					<step>F</step>
					<octave>4</octave>
				</pitch>
				<voice>1</voice>
				<type>eighth</type>
			</note>

			<note>
				<pitch>
					<step>E</step>
					<octave>4</octave>
				</pitch>
				<voice>1</voice>
				<type>eighth</type>
			</note>

			<note>
				<pitch>
					<step>D</step>
					<octave>4</octave>
				</pitch>
				<voice>1</voice>
				<type>quarter</type>
			</note>

			<note>
				<pitch>
					<step>E</step>
					<octave>4</octave>
				</pitch>
				<voice>1</voice>
				<type>quarter</type>
			</note>

		</measure>
		<!--=======================================================-->
		<measure number="5">
			<note>
				<pitch>
					<step>C</step>
					<octave>4</octave>
				</pitch>
				<voice>1</voice>
				<type>eighth</type>
			</note>

			<note>
				<pitch>
					<step>A</step>
					<octave>3</octave>
				</pitch>
				<voice>1</voice>
				<type>eighth</type>
			</note>

			<note>
				<pitch>
					<step>F</step>
					<octave>3</octave>
				</pitch>
				<voice>1</voice>
				<type>eighth</type>
			</note>

			<note>
				<pitch>
					<step>G</step>
					<octave>3</octave>
				</pitch>
				<voice>1</voice>
				<type>eighth</type>
			</note>

			<note>
				<pitch>
					<step>A</step>
					<octave>3</octave>
				</pitch>
				<voice>1</voice>
				<type>quarter</type>
			</note>

			<note>
				<pitch>
					<step>A</step>
					<octave>3</octave>
				</pitch>
				<voice>1</voice>
				<type>eighth</type>
			</note>

			<note>
				<pitch>
					<step>G</step>
					<octave>3</octave>
				</pitch>
				<voice>1</voice>
				<type>eighth</type>
			</note>

		</measure>
		<!--=======================================================-->
		<measure number="6">
			<note>
				<pitch>
					<step>A</step>
					<octave>3</octave>
				</pitch>
				<voice>1</voice>
				<type>eighth</type>
			</note>

			<note>
				<pitch>
					<step>F</step>
					<octave>3</octave>
				</pitch>
				<voice>1</voice>
				<type>eighth</type>
			</note>

			<note>
				<pitch>
					<step>G</step>
					<octave>3</octave>
				</pitch>
				<voice>1</voice>
				<type>eighth</type>
			</note>

			<note>
				<pitch>
					<step>A</step>
					<octave>3</octave>
				</pitch>
				<voice>1</voice>
				<type>eighth</type>
			</note>

			<note>
				<pitch>
					<step>B</step>
					<alter>-1</alter>
					<octave>3</octave>
				</pitch>
				<voice>1</voice>
				<type>quarter</type>
			</note>

			<note>
				<pitch>
					<step>A</step>
					<octave>3</octave>
				</pitch>
				<voice>1</voice>
				<type>quarter</type>
			</note>

		</measure>
		<!--=======================================================-->
		<measure number="7">
			<note>
				<pitch>
					<step>A</step>
					<octave>3</octave>
				</pitch>
				<voice>1</voice>
				<type>quarter</type>
			</note>

			<note>
				<pitch>
					<step>G</step>
					<octave>3</octave>
				</pitch>
				<voice>1</voice>
				<type>quarter</type>
			</note>

			<note>
				<pitch>
					<step>A</step>
					<octave>3</octave>
				</pitch>
				<voice>1</voice>
				<type>quarter</type>
			</note>

			<note>
				<pitch>
					<step>A</step>
					<octave>3</octave>
				</pitch>
				<voice>1</voice>
				<type>quarter</type>
			</note>

		</measure>
		<!--=======================================================-->
		<measure number="8">
			<note>
				<pitch>
					<step>A</step>
					<octave>3</octave>
				</pitch>
				<voice>1</voice>
				<type>quarter</type>
			</note>

			<note>
				<pitch>
					<step>F</step>
					<octave>3</octave>
				</pitch>
				<voice>1</voice>
				<type>quarter</type>
			</note>

			<note>
				<pitch>
					<step>F</step>
					<octave>4</octave>
				</pitch>
				<voice>1</voice>
				<type>quarter</type>
			</note>

			<note>
				<pitch>
					<step>F</step>
					<octave>4</octave>
				</pitch>
				<voice>1</voice>
				<type>quarter</type>
			</note>

		</measure>
		<!--=======================================================-->
		<measure number="9">
			<note>
				<pitch>
					<step>F</step>
					<octave>4</octave>
				</pitch>
				<voice>1</voice>
				<type>quarter</type>
			</note>

			<note>
				<pitch>
					<step>F</step>
					<octave>4</octave>
				</pitch>
				<voice>1</voice>
				<type>quarter</type>
			</note>

			<note>
				<pitch>
					<step>G</step>
					<octave>4</octave>
				</pitch>
				<voice>1</voice>
				<type>quarter</type>
			</note>

			<note>
				<pitch>
					<step>F</step>
					<octave>4</octave>
				</pitch>
				<voice>1</voice>
				<type>eighth</type>
			</note>

			<note>
				<pitch>
					<step>D</step>
					<octave>4</octave>
				</pitch>
				<voice>1</voice>
				<type>eighth</type>
			</note>

		</measure>
		<!--=======================================================-->
		<measure number="10">
			<note>
				<pitch>
					<step>E</step>
					<octave>4</octave>
				</pitch>
				<voice>1</voice>
				<type>quarter</type>
			</note>

			<note>
				<pitch>
					<step>F</step>
					<octave>4</octave>
				</pitch>
				<voice>1</voice>
				<type>eighth</type>
			</note>

			<note>
				<pitch>
					<step>E</step>
					<octave>4</octave>
				</pitch>
				<voice>1</voice>
				<type>eighth</type>
			</note>

			<note>
				<pitch>
					<step>D</step>
					<octave>4</octave>
				</pitch>
				<voice>1</voice>
				<type>quarter</type>
			</note>

			<note>
				<pitch>
					<step>E</step>
					<octave>4</octave>
				</pitch>
				<voice>1</voice>
				<type>quarter</type>
			</note>

		</measure>
		<!--=======================================================-->
		<measure number="11">
			<note>
				<pitch>
					<step>C</step>
					<octave>4</octave>
				</pitch>
				<voice>1</voice>
				<type>eighth</type>
			</note>

			<note>
				<pitch>
					<step>A</step>
					<octave>3</octave>
				</pitch>
				<voice>1</voice>
				<type>eighth</type>
			</note>

			<note>
				<pitch>
					<step>F</step>
					<octave>3</octave>
				</pitch>
				<voice>1</voice>
				<type>eighth</type>
			</note>

			<note>
				<pitch>
					<step>G</step>
					<octave>3</octave>
				</pitch>
				<voice>1</voice>
				<type>eighth</type>
			</note>

			<note>
				<pitch>
					<step>A</step>
					<octave>3</octave>
				</pitch>
				<voice>1</voice>
				<type>
</type>
			</note>

			<note>
				<pitch>
					<step>A</step>
					<octave>3</octave>
				</pitch>
				<voice>1</voice>
				<type>
</type>
			</note>

			<note>
				<pitch>
					<step>G</step>
					<octave>3</octave>
				</pitch>
				<voice>1</voice>
				<type>eighth</type>
			</note>

			<note>
				<pitch>
					<step>A</step>
					<octave>3</octave>
				</pitch>
				<voice>1</voice>
				<type>eighth</type>
			</note>

			<note>
				<pitch>
					<step>F</step>
					<octave>3</octave>
				</pitch>
				<voice>1</voice>
				<type>eighth</type>
			</note>

			<note>
				<pitch>
					<step>G</step>
					<octave>3</octave>
				</pitch>
				<voice>1</voice>
				<type>eighth</type>
			</note>

		</measure>
		<!--=======================================================-->
		<measure number="12">
			<note>
				<pitch>
					<step>A</step>
					<octave>3</octave>
				</pitch>
				<voice>1</voice>
				<type>eighth</type>
			</note>

			<note>
				<pitch>
					<step>B</step>
					<alter>-1</alter>
					<octave>3</octave>
				</pitch>
				<voice>1</voice>
				<type>quarter</type>
			</note>

			<note>
				<pitch>
					<step>A</step>
					<octave>3</octave>
				</pitch>
				<voice>1</voice>
				<type>quarter</type>
			</note>

			<note>
				<rest/>
				<voice>1</voice>
				<type>quarter</type>
			</note>

			<note>
				<pitch>
					<step>C</step>
					<octave>4</octave>
				</pitch>
				<voice>1</voice>
				<type>half</type>
			</note>

			<note>
				<pitch>
					<step>C</step>
					<octave>4</octave>
				</pitch>
				<voice>1</voice>
				<type>half</type>
			</note>

			<note>
				<pitch>
					<step>C</step>
					<octave>4</octave>
				</pitch>
				<voice>1</voice>
				<type>half</type>
			</note>

			<note>
				<pitch>
					<step>C</step>
					<octave>4</octave>
				</pitch>
				<voice>1</voice>
				<type>half</type>
			</note>

			<note>
				<pitch>
					<step>C</step>
					<octave>4</octave>
				</pitch>
				<voice>1</voice>
				<type>quarter</type>
			</note>

			<note>
				<pitch>
					<step>C</step>
					<octave>4</octave>
				</pitch>
				<voice>1</voice>
				<type>quarter</type>
			</note>

			<note>
				<pitch>
					<step>C</step>
					<octave>4</octave>
				</pitch>
				<voice>1</voice>
				<type>quarter</type>
			</note>

			<note>
				<pitch>
					<step>C</step>
					<octave>4</octave>
				</pitch>
				<voice>1</voice>
				<type>quarter</type>
			</note>

			<note>
				<pitch>
					<step>C</step>
					<octave>4</octave>
				</pitch>
				<voice>1</voice>
				<type>quarter</type>
			</note>

			<note>
				<pitch>
					<step>C</step>
					<octave>4</octave>
				</pitch>
				<voice>1</voice>
				<type>quarter</type>
			</note>

			<note>
				<pitch>
					<step>C</step>
					<octave>4</octave>
				</pitch>
				<voice>1</voice>
				<type>quarter</type>
			</note>

			<note>
				<pitch>
					<step>C</step>
					<octave>4</octave>
				</pitch>
				<voice>1</voice>
				<type>quarter</type>
			</note>

			<note>
				<pitch>
					<step>D</step>
					<octave>4</octave>
				</pitch>
				<voice>1</voice>
				<type>quarter</type>
			</note>

			<note>
				<pitch>
					<step>D</step>
					<octave>4</octave>
				</pitch>
				<voice>1</voice>
				<type>quarter</type>
			</note>

			<note>
				<pitch>
					<step>D</step>
					<octave>4</octave>
				</pitch>
				<voice>1</voice>
				<type>quarter</type>
			</note>

			<note>
				<pitch>
					<step>C</step>
					<octave>4</octave>
				</pitch>
				<voice>1</voice>
				<type>quarter</type>
			</note>

			<note>
				<pitch>
					<step>C</step>
					<octave>4</octave>
				</pitch>
				<voice>1</voice>
				<type>half</type>
			</note>

			<note>
				<pitch>
					<step>D</step>
					<octave>4</octave>
				</pitch>
				<voice>1</voice>
				<type>quarter</type>
			</note>

			<note>
				<pitch>
					<step>C</step>
					<octave>4</octave>
				</pitch>
				<voice>1</voice>
				<type>quarter</type>
			</note>

			<note>
				<pitch>
					<step>D</step>
					<octave>4</octave>
				</pitch>
				<voice>1</voice>
				<type>eighth</type>
			</note>

			<note>
				<pitch>
					<step>B</step>
					<alter>-1</alter>
					<octave>3</octave>
				</pitch>
				<voice>1</voice>
				<type>eighth</type>
			</note>

			<note>
				<pitch>
					<step>F</step>
					<octave>3</octave>
				</pitch>
				<voice>1</voice>
				<type>eighth</type>
			</note>

			<note>
				<pitch>
					<step>A</step>
					<octave>3</octave>
				</pitch>
				<voice>1</voice>
				<type>eighth</type>
			</note>

			<note>
				<pitch>
					<step>B</step>
					<alter>-1</alter>
					<octave>3</octave>
				</pitch>
				<voice>1</voice>
				<type>quarter</type>
			</note>

			<note>
				<pitch>
					<step>C</step>
					<octave>4</octave>
				</pitch>
				<voice>1</voice>
				<type>eighth</type>
			</note>

			<note>
				<pitch>
					<step>A</step>
					<octave>3</octave>
				</pitch>
				<voice>1</voice>
				<type>eighth</type>
			</note>

			<note>
				<pitch>
					<step>D</step>
					<octave>4</octave>
				</pitch>
				<voice>1</voice>
				<type>quarter</type>
			</note>

			<note>
				<pitch>
					<step>G</step>
					<octave>3</octave>
				</pitch>
				<voice>1</voice>
				<type>16th</type>
			</note>

			<note>
				<pitch>
					<step>F</step>
					<octave>3</octave>
				</pitch>
				<voice>1</voice>
				<type>16th</type>
			</note>

			<note>
				<pitch>
					<step>G</step>
					<octave>3</octave>
				</pitch>
				<voice>1</voice>
				<type>eighth</type>
			</note>

			<note>
				<pitch>
					<step>A</step>
					<octave>3</octave>
				</pitch>
				<voice>1</voice>
				<type>quarter</type>
			</note>

		</measure>
		</part>
	<part id ="P5">
		<measure number="0">
			<attributes>
				<divisions>4</divisions>
				<key>
					<fifths>-1</fifths>
					<mode>major</mode>
				</key>
				<time symbol="common">
					<beats>4</beats>
					<beat-type>4</beat-type>
				</time>
			</attributes>
			<sound tempo="76"/>
		</measure>
		<!--=======================================================-->
		<measure number="1">
			<note>
				<pitch>
					<step>F</step>
					<octave>3</octave>
				</pitch>
				<voice>1</voice>
				<type>quarter</type>
			</note>

			<note>
				<pitch>
					<step>E</step>
					<octave>3</octave>
				</pitch>
				<voice>1</voice>
				<type>quarter</type>
			</note>

			<note>
				<pitch>
					<step>F</step>
					<octave>3</octave>
				</pitch>
				<voice>1</voice>
				<type>quarter</type>
			</note>

			<note>
				<pitch>
					<step>D</step>
					<octave>3</octave>
				</pitch>
				<voice>1</voice>
				<type>quarter</type>
			</note>

		</measure>
		<!--=======================================================-->
		<measure number="2">
			<note>
				<pitch>
					<step>A</step>
					<octave>2</octave>
				</pitch>
				<voice>1</voice>
				<type>quarter</type>
			</note>

			<note>
				<pitch>
					<step>B</step>
					<alter>-1</alter>
					<octave>2</octave>
				</pitch>
				<voice>1</voice>
				<type>eighth</type>
			</note>

			<note>
				<pitch>
					<step>C</step>
					<octave>3</octave>
				</pitch>
				<voice>1</voice>
				<type>eighth</type>
			</note>

			<note>
				<pitch>
					<step>D</step>
					<octave>3</octave>
				</pitch>
				<voice>1</voice>
				<type>eighth</type>
			</note>

			<note>
				<pitch>
					<step>E</step>
					<octave>3</octave>
				</pitch>
				<voice>1</voice>
				<type>eighth</type>
			</note>

			<note>
				<pitch>
					<step>F</step>
					<octave>3</octave>
				</pitch>
				<voice>1</voice>
				<type>quarter</type>
			</note>

		</measure>
		<!--=======================================================-->
		<measure number="3">
			<note>
				<pitch>
					<step>F</step>
					<octave>3</octave>
				</pitch>
				<voice>1</voice>
				<type>quarter</type>
			</note>

			<note>
				<pitch>
					<step>B</step>
					<alter>-1</alter>
					<octave>3</octave>
				</pitch>
				<voice>1</voice>
				<type>quarter</type>
			</note>

			<note>
				<pitch>
					<step>A</step>
					<octave>3</octave>
				</pitch>
				<voice>1</voice>
				<type>eighth</type>
			</note>

			<note>
				<pitch>
					<step>G</step>
					<octave>3</octave>
				</pitch>
				<voice>1</voice>
				<type>eighth</type>
			</note>

			<note>
				<pitch>
					<step>A</step>
					<octave>3</octave>
				</pitch>
				<voice>1</voice>
				<type>eighth</type>
			</note>

			<note>
				<pitch>
					<step>B</step>
					<octave>3</octave>
				</pitch>
				<voice>1</voice>
				<type>eighth</type>
			</note>

		</measure>
		<!--=======================================================-->
		<measure number="4">
			<note>
				<pitch>
					<step>C</step>
					<octave>4</octave>
				</pitch>
				<voice>1</voice>
				<type>quarter</type>
			</note>

			<note>
				<pitch>
					<step>F</step>
					<octave>3</octave>
				</pitch>
				<voice>1</voice>
				<type>quarter</type>
			</note>

			<note>
				<pitch>
					<step>G</step>
					<octave>3</octave>
				</pitch>
				<voice>1</voice>
				<type>quarter</type>
			</note>

			<note>
				<pitch>
					<step>C</step>
					<octave>3</octave>
				</pitch>
				<voice>1</voice>
				<type>quarter</type>
			</note>

		</measure>
		<!--=======================================================-->
		<measure number="5">
			<note>
				<pitch>
					<step>F</step>
					<octave>3</octave>
				</pitch>
				<voice>1</voice>
				<type>quarter</type>
			</note>

			<note>
				<pitch>
					<step>B</step>
					<alter>-1</alter>
					<octave>2</octave>
				</pitch>
				<voice>1</voice>
				<type>quarter</type>
			</note>

			<note>
				<pitch>
					<step>C</step>
					<octave>3</octave>
				</pitch>
				<voice>1</voice>
				<type>quarter</type>
			</note>

			<note>
				<pitch>
					<step>D</step>
					<octave>3</octave>
				</pitch>
				<voice>1</voice>
				<type>eighth</type>
			</note>

			<note>
				<pitch>
					<step>E</step>
					<octave>3</octave>
				</pitch>
				<voice>1</voice>
				<type>eighth</type>
			</note>

		</measure>
		<!--=======================================================-->
		<measure number="6">
			<note>
				<pitch>
					<step>F</step>
					<octave>3</octave>
				</pitch>
				<voice>1</voice>
				<type>quarter</type>
			</note>

			<note>
				<pitch>
					<step>C</step>
					<octave>3</octave>
				</pitch>
				<voice>1</voice>
				<type>half</type>
			</note>

			<note>
				<pitch>
					<step>F</step>
					<octave>2</octave>
				</pitch>
				<voice>1</voice>
				<type>quarter</type>
			</note>

			<note>
				<pitch>
					<step>F</step>
					<octave>3</octave>
				</pitch>
				<voice>1</voice>
				<type>quarter</type>
			</note>

			<note>
				<pitch>
					<step>E</step>
					<octave>3</octave>
				</pitch>
				<voice>1</voice>
				<type>quarter</type>
			</note>

		</measure>
		<!--=======================================================-->
		<measure number="7">
			<note>
				<pitch>
					<step>F</step>
					<octave>3</octave>
				</pitch>
				<voice>1</voice>
				<type>quarter</type>
			</note>

			<note>
				<pitch>
					<step>D</step>
					<octave>3</octave>
				</pitch>
				<voice>1</voice>
				<type>quarter</type>
			</note>

			<note>
				<pitch>
					<step>A</step>
					<octave>2</octave>
				</pitch>
				<voice>1</voice>
				<type>quarter</type>
			</note>

			<note>
				<pitch>
					<step>B</step>
					<alter>-1</alter>
					<octave>2</octave>
				</pitch>
				<voice>1</voice>
				<type>eighth</type>
			</note>

			<note>
				<pitch>
					<step>C</step>
					<octave>3</octave>
				</pitch>
				<voice>1</voice>
				<type>eighth</type>
			</note>

		</measure>
		<!--=======================================================-->
		<measure number="8">
			<note>
				<pitch>
					<step>D</step>
					<octave>3</octave>
				</pitch>
				<voice>1</voice>
				<type>eighth</type>
			</note>

			<note>
				<pitch>
					<step>E</step>
					<octave>3</octave>
				</pitch>
				<voice>1</voice>
				<type>eighth</type>
			</note>

			<note>
				<pitch>
					<step>F</step>
					<octave>3</octave>
				</pitch>
				<voice>1</voice>
				<type>quarter</type>
			</note>

			<note>
				<pitch>
					<step>F</step>
					<octave>3</octave>
				</pitch>
				<voice>1</voice>
				<type>quarter</type>
			</note>

			<note>
				<pitch>
					<step>B</step>
					<alter>-1</alter>
					<octave>3</octave>
				</pitch>
				<voice>1</voice>
				<type>quarter</type>
			</note>

		</measure>
		<!--=======================================================-->
		<measure number="9">
			<note>
				<pitch>
					<step>A</step>
					<octave>3</octave>
				</pitch>
				<voice>1</voice>
				<type>eighth</type>
			</note>

			<note>
				<pitch>
					<step>G</step>
					<octave>3</octave>
				</pitch>
				<voice>1</voice>
				<type>eighth</type>
			</note>

			<note>
				<pitch>
					<step>A</step>
					<octave>3</octave>
				</pitch>
				<voice>1</voice>
				<type>eighth</type>
			</note>

			<note>
				<pitch>
					<step>B</step>
					<octave>3</octave>
				</pitch>
				<voice>1</voice>
				<type>eighth</type>
			</note>

			<note>
				<pitch>
					<step>C</step>
					<octave>4</octave>
				</pitch>
				<voice>1</voice>
				<type>quarter</type>
			</note>

			<note>
				<pitch>
					<step>F</step>
					<octave>3</octave>
				</pitch>
				<voice>1</voice>
				<type>quarter</type>
			</note>

		</measure>
		<!--=======================================================-->
		<measure number="10">
			<note>
				<pitch>
					<step>G</step>
					<octave>3</octave>
				</pitch>
				<voice>1</voice>
				<type>quarter</type>
			</note>

			<note>
				<pitch>
					<step>C</step>
					<octave>3</octave>
				</pitch>
				<voice>1</voice>
				<type>quarter</type>
			</note>

			<note>
				<pitch>
					<step>F</step>
					<octave>3</octave>
				</pitch>
				<voice>1</voice>
				<type>quarter</type>
			</note>

			<note>
				<pitch>
					<step>B</step>
					<alter>-1</alter>
					<octave>2</octave>
				</pitch>
				<voice>1</voice>
				<type>quarter</type>
			</note>

		</measure>
		<!--=======================================================-->
		<measure number="11">
			<note>
				<pitch>
					<step>C</step>
					<octave>3</octave>
				</pitch>
				<voice>1</voice>
				<type>quarter</type>
			</note>

			<note>
				<pitch>
					<step>D</step>
					<octave>3</octave>
				</pitch>
				<voice>1</voice>
				<type>eighth</type>
			</note>

			<note>
				<pitch>
					<step>E</step>
					<octave>3</octave>
				</pitch>
				<voice>1</voice>
				<type>eighth</type>
			</note>

			<note>
				<pitch>
					<step>F</step>
					<octave>3</octave>
				</pitch>
				<voice>1</voice>
				<type>quarter</type>
			</note>

			<note>
				<pitch>
					<step>C</step>
					<octave>3</octave>
				</pitch>
				<voice>1</voice>
				<type>half</type>
			</note>

			<note>
				<pitch>
					<step>F</step>
					<octave>2</octave>
				</pitch>
				<voice>1</voice>
				<type>quarter</type>
			</note>

		</measure>
		<!--=======================================================-->
		<measure number="12">
			<note>
				<rest/>
				<voice>1</voice>
				<type>quarter</type>
			</note>

			<note>
				<pitch>
					<step>E</step>
					<octave>3</octave>
				</pitch>
				<voice>1</voice>
				<type>half</type>
			</note>

			<note>
				<pitch>
					<step>F</step>
					<octave>3</octave>
				</pitch>
				<voice>1</voice>
				<type>half</type>
			</note>

			<note>
				<pitch>
					<step>C</step>
					<octave>3</octave>
				</pitch>
				<voice>1</voice>
				<type>half</type>
			</note>

			<note>
				<pitch>
					<step>F</step>
					<octave>3</octave>
				</pitch>
				<voice>1</voice>
				<type>half</type>
			</note>

			<note>
				<pitch>
					<step>F</step>
					<octave>3</octave>
				</pitch>
				<voice>1</voice>
				<type>eighth</type>
			</note>

			<note>
				<pitch>
					<step>G</step>
					<octave>3</octave>
				</pitch>
				<voice>1</voice>
				<type>eighth</type>
			</note>

			<note>
				<pitch>
					<step>A</step>
					<octave>3</octave>
				</pitch>
				<voice>1</voice>
				<type>eighth</type>
			</note>

			<note>
				<pitch>
					<step>F</step>
					<octave>3</octave>
				</pitch>
				<voice>1</voice>
				<type>eighth</type>
			</note>

			<note>
				<pitch>
					<step>C</step>
					<octave>3</octave>
				</pitch>
				<voice>1</voice>
				<type>eighth</type>
			</note>

			<note>
				<pitch>
					<step>D</step>
					<octave>3</octave>
				</pitch>
				<voice>1</voice>
				<type>eighth</type>
			</note>

		</measure>
		<!--=======================================================-->
		<measure number="13">
			<note>
				<pitch>
					<step>E</step>
					<octave>3</octave>
				</pitch>
				<voice>1</voice>
				<type>eighth</type>
			</note>

			<note>
				<pitch>
					<step>C</step>
					<octave>3</octave>
				</pitch>
				<voice>1</voice>
				<type>eighth</type>
			</note>

			<note>
				<pitch>
					<step>F</step>
					<octave>3</octave>
				</pitch>
				<voice>1</voice>
				<type>eighth</type>
			</note>

			<note>
				<pitch>
					<step>G</step>
					<octave>3</octave>
				</pitch>
				<voice>1</voice>
				<type>eighth</type>
			</note>

			<note>
				<pitch>
					<step>A</step>
					<octave>3</octave>
				</pitch>
				<voice>1</voice>
				<type>eighth</type>
			</note>

			<note>
				<pitch>
					<step>F</step>
					<octave>3</octave>
				</pitch>
				<voice>1</voice>
				<type>eighth</type>
			</note>

			<note>
				<pitch>
					<step>C</step>
					<octave>4</octave>
				</pitch>
				<voice>1</voice>
				<type>quarter</type>
			</note>

		</measure>
		<!--=======================================================-->
		<measure number="14">
			<note>
				<pitch>
					<step>B</step>
					<alter>-1</alter>
					<octave>3</octave>
				</pitch>
				<voice>1</voice>
				<type>eighth</type>
			</note>

			<note>
				<pitch>
					<step>A</step>
					<octave>3</octave>
				</pitch>
				<voice>1</voice>
				<type>eighth</type>
			</note>

			<note>
				<pitch>
					<step>G</step>
					<octave>3</octave>
				</pitch>
				<voice>1</voice>
				<type>quarter</type>
			</note>

			<note>
				<pitch>
					<step>D</step>
					<octave>4</octave>
				</pitch>
				<voice>1</voice>
				<type>eighth</type>
			</note>

			<note>
				<pitch>
					<step>C</step>
					<octave>4</octave>
				</pitch>
				<voice>1</voice>
				<type>eighth</type>
			</note>

			<note>
				<pitch>
					<step>B</step>
					<alter>-1</alter>
					<octave>3</octave>
				</pitch>
				<voice>1</voice>
				<type>quarter</type>
			</note>

		</measure>
		<!--=======================================================-->
		<measure number="15">
			<note>
				<pitch>
					<step>C</step>
					<octave>4</octave>
				</pitch>
				<voice>1</voice>
				<type>quarter</type>
			</note>

			<note>
				<pitch>
					<step>F</step>
					<octave>3</octave>
				</pitch>
				<voice>1</voice>
				<type>half</type>
			</note>

			<note>
				<pitch>
					<step>D</step>
					<octave>3</octave>
				</pitch>
				<voice>1</voice>
				<type>eighth</type>
			</note>

			<note>
				<pitch>
					<step>F</step>
					<octave>3</octave>
				</pitch>
				<voice>1</voice>
				<type>eighth</type>
			</note>

			<note>
				<pitch>
					<step>A</step>
					<octave>3</octave>
				</pitch>
				<voice>1</voice>
				<type>quarter</type>
			</note>

			<note>
				<pitch>
					<step>B</step>
					<alter>-1</alter>
					<octave>2</octave>
				</pitch>
				<voice>1</voice>
				<type>eighth</type>
			</note>

			<note>
				<pitch>
					<step>D</step>
					<octave>3</octave>
				</pitch>
				<voice>1</voice>
				<type>eighth</type>
			</note>

		</measure>
		<!--=======================================================-->
		<measure number="16">
			<note>
				<pitch>
					<step>F</step>
					<octave>3</octave>
				</pitch>
				<voice>1</voice>
				<type>quarter</type>
			</note>

			<note>
				<pitch>
					<step>G</step>
					<octave>3</octave>
				</pitch>
				<voice>1</voice>
				<type>quarter</type>
			</note>

			<note>
				<pitch>
					<step>A</step>
					<octave>3</octave>
				</pitch>
				<voice>1</voice>
				<type>eighth</type>
			</note>

			<note>
				<pitch>
					<step>D</step>
					<octave>3</octave>
				</pitch>
				<voice>1</voice>
				<type>eighth</type>
			</note>

			<note>
				<pitch>
					<step>B</step>
					<octave>2</octave>
				</pitch>
				<voice>1</voice>
				<type>quarter</type>
			</note>

		</measure>
		<!--=======================================================-->
		<measure number="17">
			<note>
				<pitch>
					<step>C</step>
					<octave>3</octave>
				</pitch>
				<voice>1</voice>
				<type>quarter</type>
			</note>

			<note>
				<pitch>
					<step>F</step>
					<octave>2</octave>
				</pitch>
				<voice>1</voice>
				<type>quarter</type>
			</note>

		</measure>
		</part>
</score-partwise>